<svg width="138" height="48" viewBox="0 0 138 48" fill="none" xmlns="http://www.w3.org/2000/svg">
<path d="M34.4398 39.9571C36.8428 34.9155 37.2334 29.6605 37.2393 24.37C37.2393 19.1032 36.8487 13.8778 34.4575 8.88354C36.0378 9.58263 37.3577 10.4357 38.5415 11.4962C41.708 14.3459 43.1522 18.0131 43.4954 22.1543C43.7322 24.9861 43.5961 27.8061 42.7497 30.5492C41.4239 34.8621 38.6894 37.9606 34.4398 39.9512V39.9571Z" fill="white"/>
<path d="M10.3692 9.16757C8.12598 14.0789 7.69983 19.2924 7.69391 24.5711C7.69391 29.8556 8.39824 35.004 10.8013 39.9212C10.6237 39.8679 10.4935 39.8501 10.3869 39.7909C5.34416 37.273 2.4203 33.2029 1.60351 27.6458C1.02939 23.7239 1.30757 19.8908 3.03585 16.2473C4.56289 13.0244 7.00733 10.7198 10.1975 9.16757C10.2271 9.14979 10.2745 9.16757 10.3751 9.16757H10.3692Z" fill="white"/>
<path d="M34.2559 8.65251C26.3544 5.96874 18.5002 5.87988 10.4684 8.89541C11.0366 8.04229 11.4924 7.25434 12.0547 6.54934C13.9783 4.14995 16.4997 2.73401 19.5241 2.26006C23.0103 1.71501 26.4017 1.95791 29.5801 3.67599C31.4445 4.67722 33.4332 6.79816 34.2559 8.64658V8.65251Z" fill="white"/>
<path d="M34.1988 40.1876C32.9322 43.1972 29.8959 45.9224 25.3977 46.7104C24.8058 46.817 24.1843 46.8881 23.5392 46.9177C22.1068 46.9888 20.7692 46.894 19.544 46.6452C15.7442 45.8869 12.9268 43.6237 11.0388 40.2053C13.8798 41.2125 16.7267 41.8464 19.544 42.1071C21.4972 42.2967 23.4445 42.3026 25.3858 42.1367C28.3334 41.876 31.2572 41.2303 34.1929 40.1816L34.1988 40.1876Z" fill="white"/>
<path d="M22.2695 30.5158C25.692 30.5158 28.4664 27.7387 28.4664 24.313C28.4664 20.8872 25.692 18.1101 22.2695 18.1101C18.847 18.1101 16.0726 20.8872 16.0726 24.313C16.0726 27.7387 18.847 30.5158 22.2695 30.5158Z" fill="white"/>
<path d="M60.446 30.5V18.606H56.57V17.2H65.861V18.606H61.985V30.5H60.446ZM71.2574 30.747C68.4264 30.747 66.4314 28.6 66.4314 25.579C66.4314 22.539 68.3314 20.373 71.1434 20.373C73.1954 20.373 74.2214 21.703 74.5064 22.216H74.6204V20.62H76.1404V28.714C76.1404 29.018 76.3304 29.17 76.6344 29.17H77.0904V30.5H76.1214C75.3044 30.5 74.6964 29.892 74.6774 29.037V28.942H74.5634C74.3164 29.341 73.4044 30.747 71.2574 30.747ZM71.3334 29.398C73.4044 29.398 74.6774 27.669 74.6774 25.598C74.6774 23.147 73.1574 21.741 71.3144 21.741C69.3764 21.741 67.9704 23.337 67.9704 25.598C67.9704 27.897 69.4334 29.398 71.3334 29.398ZM79.9385 30.5V16.25H81.4395V24.439H83.1685L85.9615 20.62H87.6905L84.4415 24.99V25.104L87.9375 30.5H86.1515L83.2255 25.807H81.4395V30.5H79.9385ZM93.7842 30.747C90.7822 30.747 88.9012 28.638 88.9012 25.598C88.9012 22.444 91.0672 20.373 93.6892 20.373C96.6722 20.373 98.3822 22.463 98.3822 25.427V25.978H90.4402C90.4592 28.182 91.7512 29.417 93.8032 29.417C95.1902 29.417 96.4632 28.619 96.7862 27.251L98.2492 27.593C97.6982 29.436 96.0642 30.747 93.7842 30.747ZM90.4782 24.762H96.8432C96.7482 22.71 95.3232 21.722 93.6892 21.722C92.0742 21.722 90.5922 22.9 90.4782 24.762ZM107.039 30.747C103.182 30.747 100.275 27.802 100.275 23.85C100.275 19.936 103.201 16.953 107.058 16.953C110.934 16.953 113.841 19.974 113.841 23.85C113.841 27.764 110.915 30.747 107.039 30.747ZM107.058 29.303C110.003 29.303 112.245 27.004 112.245 23.85C112.245 20.734 110.003 18.397 107.058 18.397C104.113 18.397 101.871 20.734 101.871 23.85C101.871 27.004 104.113 29.303 107.058 29.303ZM116.51 30.5V20.62H118.011V22.064H118.125C118.543 21.171 119.607 20.373 121.146 20.373C123.445 20.373 124.832 22.102 124.832 24.287V30.5H123.331V24.382C123.331 22.805 122.172 21.779 120.785 21.779C119.227 21.779 118.011 22.976 118.011 24.61V30.5H116.51ZM132.192 30.747C129.19 30.747 127.309 28.638 127.309 25.598C127.309 22.444 129.475 20.373 132.097 20.373C135.08 20.373 136.79 22.463 136.79 25.427V25.978H128.848C128.867 28.182 130.159 29.417 132.211 29.417C133.598 29.417 134.871 28.619 135.194 27.251L136.657 27.593C136.106 29.436 134.472 30.747 132.192 30.747ZM128.886 24.762H135.251C135.156 22.71 133.731 21.722 132.097 21.722C130.482 21.722 129 22.9 128.886 24.762Z" fill="#C2C2C2"/>
</svg>
